<!DOCTYPE svg PUBLIC "-//W3C//DTD SVG 1.1//EN" "http://www.w3.org/Graphics/SVG/1.1/DTD/svg11.dtd">

<!-- Uploaded to: SVG Repo, www.svgrepo.com, Transformed by: SVG Repo Mixer Tools -->
<svg height="70px" width="100px" version="1.1" id="Layer_1" xmlns="http://www.w3.org/2000/svg" xmlns:xlink="http://www.w3.org/1999/xlink" viewBox="-51.2 -51.2 614.44 614.44" xml:space="preserve" fill="#000000" transform="rotate(0)">

<g id="SVGRepo_bgCarrier" stroke-width="0" transform="translate(33.2826,33.2826), scale(0.87)">

<path transform="translate(-51.2, -51.2), scale(38.4025)" fill="#5d6565"  strokewidth="0"/>

</g>

<g id="SVGRepo_tracerCarrier" stroke-linecap="round" stroke-linejoin="round"/>

<g id="SVGRepo_iconCarrier"> <polygon style="fill:#FFFFFF;" points="115.96,317.992 59.664,355.864 256.016,487.936 452.368,355.864 396.072,317.992 256.016,412.208 "/> <polygon style="fill:#723131;" points="256.016,512.04 488.192,355.864 413.984,305.944 396.072,317.992 452.368,355.864 256.016,487.936 59.664,355.864 115.96,317.992 98.048,305.944 23.84,355.864 "/> <polygon style="fill:#FFFFFF;" points="115.968,218.16 59.664,256.024 256.016,388.096 452.368,256.024 396.064,218.16 256.016,312.36 "/> <polygon style="fill:#32b854;" points="256.016,412.208 396.072,317.992 413.984,305.944 488.192,256.024 413.984,206.104 396.064,218.16 452.368,256.024 256.016,388.096 59.664,256.024 115.968,218.16 98.048,206.104 23.84,256.024 98.048,305.944 115.96,317.992 "/> <polygon style="fill:#FFFFFF;" points="452.368,156.184 256.016,24.112 59.664,156.184 256.016,288.256 "/> <path style="fill:#42b3c2;" d="M256.016,312.36l140.048-94.208l17.92-12.048l74.216-49.92L256.016,0L23.84,156.184l74.216,49.92 l17.92,12.048L256.016,312.36z M59.664,156.184L256.016,24.112l196.352,132.072L256.016,288.256L59.664,156.184z"/> </g>

</svg>